#!OML:ASF F:\VICON\USERDATA\INSTALL\rory3\rory3.ASF
:FULLY-SPECIFIED
:DEGREES
189
root 0.583782 17.8011 4.20006 -2.72976 -0.50162 -1.00194
lowerback 10.2103 -1.37943 -0.436006
upperback 0.140876 -1.73198 2.73336
thorax -5.4859 -0.806227 3.36499
lowerneck -16.4103 -2.00948 -1.87976
upperneck 19.1541 -2.23289 -0.294541
head 8.71144 -1.22285 -0.062095
rclavicle 2.00276e-014 -8.74653e-015
rhumerus -38.5216 -24.7325 -71.6343
rradius 20.2058
rwrist 10.821
rhand -17.9861 22.4577
rfingers 7.12502
rthumb 8.28374 -7.35986
lclavicle 2.00276e-014 -8.74653e-015
lhumerus -26.2453 -3.29082 80.9741
lradius 31.615
lwrist 6.92852
lhand -28.5612 25.6637
lfingers 7.12502
lthumb -1.92797 55.6347
rfemur -25.8376 6.04961 22.3626
rtibia 27.2001
rfoot -3.44768 -2.01545
rtoes -0.27309
lfemur 11.2553 -1.64748 -21.3732
ltibia 41.2688
lfoot -0.36744 -4.73077
ltoes -28.5577
190
root 0.557315 17.787 4.40905 -2.89471 -0.66703 -1.27195
lowerback 10.1291 -1.33277 -0.132521
upperback 0.229038 -1.63683 2.73667
thorax -5.36161 -0.769423 3.17766
lowerneck -16.5241 -2.02763 -1.75434
upperneck 19.1349 -2.28309 -0.316582
head 8.72376 -1.23935 -0.0974683
rclavicle -3.77691e-015 -7.15625e-015
rhumerus -38.5798 -25.8237 -70.9824
rradius 19.5966
rwrist 11.7217
rhand -17.4725 23.4784
rfingers 7.12502
rthumb 8.7794 -6.31905
lclavicle -3.77691e-015 -7.15625e-015
lhumerus -26.5923 -3.01184 80.9133
lradius 31.811
lwrist 6.97727
lhand -28.3214 26.036
lfingers 7.12502
lthumb -1.69637 56.009
rfemur -25.6472 5.70668 22.9828
rtibia 28.492
rfoot -4.04513 -1.31714
rtoes 0.275556
lfemur 10.9713 -0.85985 -20.7955
ltibia 43.3997
lfoot -0.482311 -7.07884
ltoes -39.4928
191
root 0.535257 17.7815 4.61692 -3.10301 -0.969046 -1.6243
lowerback 9.982 -1.25026 0.327611
upperback 0.440267 -1.48053 2.75123
thorax -5.07715 -0.707682 2.90016
lowerneck -16.8964 -2.04287 -1.80193
upperneck 19.2475 -2.31131 -0.189076
head 8.83191 -1.2418 -0.0546816
rclavicle 5.76476e-015 2.3059e-014
rhumerus -38.6221 -26.6875 -70.5922
rradius 19.4592
rwrist 12.3993
rhand -16.9509 23.9093
rfingers 7.12502
rthumb 9.28271 -5.86637
lclavicle 5.76476e-015 2.3059e-014
lhumerus -26.6747 -2.71932 80.8953
lradius 31.8504
lwrist 6.85435
lhand -28.3361 25.527
lfingers 7.12502
lthumb -1.7105 55.4999
rfemur -25.0534 5.51153 23.6808
rtibia 29.1212
rfoot -4.38335 -0.547465
rtoes 0.829692
lfemur 10.4533 -0.239228 -20.2073
ltibia 45.4673
lfoot -1.03619 -8.75807
ltoes -45.4744
192
root 0.511347 17.8112 4.81703 -3.2657 -1.22743 -1.84507
lowerback 10.157 -1.17454 0.567638
upperback 0.493581 -1.34916 2.76354
thorax -5.13077 -0.648039 2.76315
lowerneck -17.1374 -2.01639 -1.76651
upperneck 19.3959 -2.28802 -0.148981
head 8.92618 -1.2237 -0.0474763
rclavicle 4.79568e-015 -1.03368e-014
rhumerus -38.5211 -26.6563 -70.798
rradius 19.5803
rwrist 12.3629
rhand -17.349 22.5743
rfingers 7.12502
rthumb 8.89859 -7.21806
lclavicle 4.79568e-015 -1.03368e-014
lhumerus -26.9915 -2.58414 80.984
lradius 31.8403
lwrist 7.05847
lhand -28.5014 24.4645
lfingers 7.12502
lthumb -1.87012 54.436
rfemur -24.3188 5.40418 24.2052
rtibia 29.415
rfoot -4.70559 -0.254913
rtoes 1.6238
lfemur 9.13232 -0.220983 -19.8342
ltibia 47.529
lfoot 1.33112 -10.0914
ltoes -44.1308
193
root 0.482235 17.9129 5.02663 -3.32529 -1.27145 -2.01613
lowerback 10.3213 -1.19717 0.614661
upperback 0.39445 -1.36364 2.83251
thorax -5.32594 -0.653506 2.81875
lowerneck -16.8487 -1.96592 -1.71987
upperneck 19.165 -2.22538 -0.199266
head 8.79307 -1.19645 -0.0598884
rclavicle 1.11568e-014 1.19271e-014
rhumerus -38.3968 -26.141 -71.0803
rradius 19.6432
rwrist 12.2423
rhand -17.7824 21.4053
rfingers 7.12502
rthumb 8.48029 -8.40439
lclavicle 1.11568e-014 1.19271e-014
lhumerus -27.7299 -2.35658 81.1718
lradius 32.0281
lwrist 7.24975
lhand -29.3332 24.7049
lfingers 7.12502
lthumb -2.67348 54.6679
rfemur -23.2944 5.36321 24.6015
rtibia 29.2215
rfoot -5.08829 -0.2299
rtoes 2.986
lfemur 6.29802 -1.2829 -19.5924
ltibia 49.661
lfoot 9.42678 -8.20812
ltoes -24.9323
194
root 0.453411 17.9355 5.21962 -3.43546 -1.4287 -2.32745
lowerback 10.4227 -1.18233 0.767898
upperback 0.411685 -1.31673 2.96
thorax -5.36745 -0.632422 2.86217
lowerneck -17.0229 -1.9309 -1.70063
upperneck 19.2154 -2.16982 -0.237362
head 8.84069 -1.17295 -0.071156
rclavicle -1.2921e-014 6.36111e-015
rhumerus -38.0814 -26.601 -70.7604
rradius 19.0378
rwrist 12.9747
rhand -17.5243 22.2579
rfingers 7.12502
rthumb 8.72939 -7.54161
lclavicle -1.2921e-014 6.36111e-015
lhumerus -28.1868 -1.81851 81.2463
lradius 32.3221
lwrist 7.81187
lhand -27.9433 26.1689
lfingers 7.12502
lthumb -1.33116 56.1445
rfemur -22.4099 5.48515 25.1625
rtibia 29.0205
rfoot -5.13631 -0.112112
rtoes 4.61384
lfemur 5.15128 -1.16147 -19.0965
ltibia 51.9006
lfoot 10.2342 -8.74609
ltoes -28.0763
195
root 0.428336 17.9574 5.41157 -3.56429 -1.54238 -2.71396
lowerback 10.4421 -1.14611 1.07757
upperback 0.519534 -1.22807 3.07669
thorax -5.27297 -0.595956 2.79485
lowerneck -17.476 -1.97469 -1.69668
upperneck 19.4003 -2.21749 -0.255812
head 8.98623 -1.19665 -0.0899975
rclavicle 7.60351e-015 -5.56597e-015
rhumerus -37.6219 -27.4858 -70.3604
rradius 18.362
rwrist 13.7548
rhand -17.3403 23.0233
rfingers 7.12502
rthumb 8.90696 -6.76872
lclavicle 7.60351e-015 -5.56597e-015
lhumerus -28.2149 -1.36746 81.3073
lradius 32.3131
lwrist 8.42837
lhand -26.5644 28.7501
lfingers 7.12502
lthumb 0.000611787 58.7299
rfemur -21.3677 5.63096 25.7842
rtibia 28.6691
rfoot -5.1015 -0.188355
rtoes 5.66366
lfemur 3.93978 -1.09543 -18.549
ltibia 54.1637
lfoot 15.8339 -10.1971
ltoes -12.8842
196
root 0.411759 17.9751 5.61074 -3.64108 -1.50621 -2.83261
lowerback 10.3009 -1.10033 1.27998
upperback 0.550292 -1.14953 3.06179
thorax -5.16895 -0.562801 2.64847
lowerneck -17.4002 -2.0874 -1.86273
upperneck 19.4211 -2.35975 -0.123485
head 8.98475 -1.26116 -0.0350491
rclavicle 1.66482e-014 -2.3059e-014
rhumerus -37.4513 -26.982 -70.8329
rradius 18.7488
rwrist 13.2999
rhand -17.6706 22.2833
rfingers 7.12502
rthumb 8.58822 -7.522
lclavicle 1.66482e-014 -2.3059e-014
lhumerus -28.3025 -1.20565 81.4659
lradius 32.1806
lwrist 9.03343
lhand -26.1287 29.1026
lfingers 7.12502
lthumb 0.421409 59.0819
rfemur -20.4857 5.49177 26.0896
rtibia 28.6497
rfoot -5.41078 -0.270541
rtoes 5.92229
lfemur 2.60347 -1.0982 -18.3695
ltibia 56.403
lfoot 18.3758 -11.4603
ltoes -7.87624
197
root 0.391627 18.0105 5.80333 -3.58522 -1.61769 -3.27919
lowerback 10.1517 -1.06516 1.73462
upperback 0.508146 -1.05066 3.12104
thorax -5.14048 -0.523993 2.43674
lowerneck -16.9829 -2.142 -1.84869
upperneck 19.174 -2.45345 -0.100087
head 8.82533 -1.30186 -0.0350427
rclavicle -7.25564e-015 8.74653e-015
rhumerus -37.2792 -25.8093 -71.6839
rradius 19.2353
rwrist 12.5928
rhand -18.2507 21.0617
rfingers 7.12502
rthumb 8.02839 -8.76577
lclavicle -7.25564e-015 8.74653e-015
lhumerus -28.7042 -1.50121 81.7662
lradius 31.694
lwrist 8.43428
lhand -29.5638 24.0509
lfingers 7.12502
lthumb -2.89623 54.0109
rfemur -19.7031 5.55123 26.7408
rtibia 28.481
rfoot -5.7263 -0.303229
rtoes 6.28945
lfemur 1.03754 -0.955666 -17.7702
ltibia 58.5376
lfoot 18.7197 -11.9352
ltoes -6.03531
198
root 0.365046 18.0315 5.98185 -3.4755 -1.7352 -3.69381
lowerback 10.0696 -1.03747 2.00433
upperback 0.535036 -0.981191 3.23649
thorax -5.07111 -0.494861 2.39318
lowerneck -16.9159 -2.1469 -1.66751
upperneck 18.886 -2.47218 -0.26546
head 8.71004 -1.31485 -0.120418
rclavicle 6.4605e-016 1.43125e-014
rhumerus -36.6685 -25.3159 -72.1728
rradius 19.0161
rwrist 12.5739
rhand -19.0614 20.42
rfingers 7.12502
rthumb 7.24587 -9.43596
lclavicle 6.4605e-016 1.43125e-014
lhumerus -28.7819 -0.88461 81.7712
lradius 32.2311
lwrist 9.86077
lhand -29.2405 26.3484
lfingers 7.12502
lthumb -2.58395 56.3125
rfemur -19.0729 5.73741 27.3602
rtibia 28.2863
rfoot -6.2005 -0.332666
rtoes 6.33643
lfemur -0.634168 -0.769313 -17.1518
ltibia 60.5547
lfoot 18.2582 -11.6862
ltoes -2.27871
199
root 0.340014 18.054 6.15806 -3.47891 -1.97392 -4.21935
lowerback 10.1782 -0.938412 2.42217
upperback 0.588714 -0.791815 3.37025
thorax -5.08485 -0.409486 2.27262
lowerneck -17.0395 -2.2056 -1.61248
upperneck 18.7307 -2.56559 -0.260366
head 8.67911 -1.35357 -0.139592
rclavicle -4.12478e-015 -2.22639e-014
rhumerus -36.0359 -25.4656 -72.3445
rradius 18.7328
rwrist 12.9486
rhand -19.2678 20.0486
rfingers 7.12502
rthumb 7.04666 -9.81415
lclavicle -4.12478e-015 -2.22639e-014
lhumerus -28.909 -0.628756 81.9252
lradius 31.751
lwrist 9.13759
lhand -30.2356 24.9161
lfingers 7.12502
lthumb -3.54499 54.8663
rfemur -18.267 6.08772 28.1261
rtibia 28.0317
rfoot -6.04834 -0.169467
rtoes 9.22562
lfemur -2.00286 -0.46206 -16.3856
ltibia 62.3775
lfoot 17.0697 -12.0799
ltoes -3.79888
200
root 0.318021 18.0776 6.34242 -3.59274 -2.35039 -4.37436
lowerback 10.2881 -0.75872 2.51208
upperback 0.579343 -0.536026 3.38474
thorax -5.16239 -0.285372 2.20268
lowerneck -16.7138 -2.29989 -1.71336
upperneck 18.5015 -2.71382 -0.0826995
head 8.54789 -1.4119 -0.075706
rclavicle 5.66536e-015 -5.48646e-014
rhumerus -35.7765 -25.7187 -72.2757
rradius 18.5878
rwrist 13.4775
rhand -19.1233 20.4022
rfingers 7.12502
rthumb 7.18609 -9.45574
lclavicle 5.66536e-015 -5.48646e-014
lhumerus -29.224 -0.833851 82.1911
lradius 31.1239
lwrist 8.6289
lhand -30.7741 22.4413
lfingers 7.12502
lthumb -4.06495 52.3822
rfemur -17.3902 6.51028 28.4855
rtibia 27.9971
rfoot -7.24967 -0.0384329
rtoes 6.99535
lfemur -3.10607 0.0143919 -16.1009
ltibia 63.9752
lfoot 15.3985 -13.7904
ltoes -11.1047
